<svg width="367" height="289" viewBox="0 0 367 289" fill="none" xmlns="http://www.w3.org/2000/svg">
<g clip-path="url(#clip0_3_3)">
<path d="M16.9621 58.842C20.1918 58.842 22.81 55.9544 22.81 52.3924C22.81 48.8304 20.1918 45.9428 16.9621 45.9428C13.7324 45.9428 11.1141 48.8304 11.1141 52.3924C11.1141 55.9544 13.7324 58.842 16.9621 58.842Z" fill="#E6E6E6"/>
<path d="M34.5058 58.842C37.7355 58.842 40.3537 55.9544 40.3537 52.3924C40.3537 48.8304 37.7355 45.9428 34.5058 45.9428C31.2761 45.9428 28.6579 48.8304 28.6579 52.3924C28.6579 55.9544 31.2761 58.842 34.5058 58.842Z" fill="#E6E6E6"/>
<path d="M52.0496 58.842C55.2793 58.842 57.8975 55.9544 57.8975 52.3924C57.8975 48.8304 55.2793 45.9428 52.0496 45.9428C48.8199 45.9428 46.2017 48.8304 46.2017 52.3924C46.2017 55.9544 48.8199 58.842 52.0496 58.842Z" fill="#E6E6E6"/>
<path d="M69.5933 58.842C72.8231 58.842 75.4413 55.9544 75.4413 52.3924C75.4413 48.8304 72.8231 45.9428 69.5933 45.9428C66.3636 45.9428 63.7454 48.8304 63.7454 52.3924C63.7454 55.9544 66.3636 58.842 69.5933 58.842Z" fill="#E6E6E6"/>
<path d="M87.1371 58.842C90.3668 58.842 92.985 55.9544 92.985 52.3924C92.985 48.8304 90.3668 45.9428 87.1371 45.9428C83.9074 45.9428 81.2892 48.8304 81.2892 52.3924C81.2892 55.9544 83.9074 58.842 87.1371 58.842Z" fill="#E6E6E6"/>
<path d="M104.681 58.842C107.911 58.842 110.529 55.9544 110.529 52.3924C110.529 48.8304 107.911 45.9428 104.681 45.9428C101.451 45.9428 98.8329 48.8304 98.8329 52.3924C98.8329 55.9544 101.451 58.842 104.681 58.842Z" fill="#E6E6E6"/>
<path d="M122.225 58.842C125.454 58.842 128.073 55.9544 128.073 52.3924C128.073 48.8304 125.454 45.9428 122.225 45.9428C118.995 45.9428 116.377 48.8304 116.377 52.3924C116.377 55.9544 118.995 58.842 122.225 58.842Z" fill="#E6E6E6"/>
<path d="M135.738 60.2465H3.44866C2.81773 60.2457 2.21285 59.9689 1.76671 59.4769C1.32057 58.9848 1.06961 58.3177 1.06887 57.6219V47.163C1.06961 46.4672 1.32057 45.8001 1.76671 45.308C2.21285 44.816 2.81773 44.5392 3.44866 44.5384H135.738C136.369 44.5392 136.974 44.816 137.42 45.308C137.866 45.8001 138.117 46.4672 138.118 47.163V57.6219C138.117 58.3177 137.866 58.9848 137.42 59.4769C136.974 59.9689 136.369 60.2457 135.738 60.2465ZM3.44866 45.5883C3.07009 45.5887 2.70715 45.7548 2.43946 46.05C2.17177 46.3452 2.0212 46.7455 2.02078 47.1631V57.6219C2.0212 58.0394 2.17177 58.4397 2.43946 58.7349C2.70715 59.0301 3.07009 59.1962 3.44866 59.1966H135.738C136.117 59.1962 136.48 59.0301 136.747 58.7349C137.015 58.4397 137.165 58.0394 137.166 57.6219V47.163C137.165 46.7455 137.015 46.3452 136.747 46.05C136.48 45.7548 136.117 45.5887 135.738 45.5883L3.44866 45.5883Z" fill="#E6E6E6"/>
<path d="M31.7594 1.50802C32.1219 1.50847 32.4695 1.6675 32.7258 1.95021C32.9821 2.23291 33.1263 2.6162 33.1267 3.01601V35.6943C33.1263 36.0941 32.9821 36.4774 32.7258 36.7601C32.4695 37.0428 32.1219 37.2018 31.7594 37.2023H2.73471C2.3722 37.2018 2.02466 37.0428 1.76832 36.7601C1.51199 36.4774 1.3678 36.0941 1.36739 35.6943V3.01603C1.3678 2.61623 1.51199 2.23293 1.76832 1.95023C2.02466 1.66752 2.3722 1.5085 2.73471 1.50804H31.7594V1.50802ZM31.7594 2.92894e-05H2.73471C2.00943 2.92894e-05 1.31385 0.317787 0.800997 0.883402C0.288145 1.44902 2.28882e-05 2.21616 2.28882e-05 3.01606V35.6943C2.28882e-05 36.4942 0.288145 37.2613 0.800997 37.827C1.31385 38.3926 2.00943 38.7103 2.73471 38.7103H31.7594C32.4847 38.7103 33.1803 38.3926 33.6931 37.827C34.206 37.2613 34.4941 36.4942 34.4941 35.6943V3.01603C34.4941 2.21613 34.206 1.44899 33.6931 0.88338C33.1803 0.317766 32.4847 8.88431e-06 31.7594 7.62939e-06V2.92894e-05Z" fill="#E6E6E6"/>
<path d="M27.2322 10.0977H7.86711C7.77697 10.0983 7.68762 10.0793 7.60419 10.0417C7.52076 10.004 7.4449 9.94859 7.38097 9.87852C7.31704 9.80844 7.26631 9.72511 7.23168 9.63333C7.19706 9.54155 7.17924 9.44312 7.17924 9.34372C7.17924 9.24431 7.19706 9.14588 7.23168 9.0541C7.26631 8.96232 7.31704 8.87899 7.38097 8.80892C7.4449 8.73884 7.52076 8.6834 7.60419 8.64578C7.68762 8.60817 7.77697 8.58911 7.86711 8.58972H27.2322C27.3223 8.58911 27.4117 8.60817 27.4951 8.64578C27.5785 8.6834 27.6544 8.73884 27.7183 8.80892C27.7823 8.87899 27.833 8.96232 27.8676 9.0541C27.9022 9.14588 27.9201 9.24431 27.9201 9.34372C27.9201 9.44312 27.9022 9.54155 27.8676 9.63333C27.833 9.72511 27.7823 9.80844 27.7183 9.87852C27.6544 9.94859 27.5785 10.004 27.4951 10.0417C27.4117 10.0793 27.3223 10.0983 27.2322 10.0977Z" fill="#524BD6"/>
<path d="M27.2322 15.4372H7.86711C7.77697 15.4379 7.68762 15.4188 7.60419 15.3812C7.52076 15.3436 7.4449 15.2881 7.38097 15.218C7.31704 15.148 7.26631 15.0646 7.23168 14.9729C7.19706 14.8811 7.17924 14.7827 7.17924 14.6833C7.17924 14.5838 7.19706 14.4854 7.23168 14.3936C7.26631 14.3019 7.31704 14.2185 7.38097 14.1485C7.4449 14.0784 7.52076 14.0229 7.60419 13.9853C7.68762 13.9477 7.77697 13.9286 7.86711 13.9293H27.2322C27.3223 13.9286 27.4117 13.9477 27.4951 13.9853C27.5785 14.0229 27.6544 14.0784 27.7183 14.1485C27.7823 14.2185 27.833 14.3019 27.8676 14.3936C27.9022 14.4854 27.9201 14.5838 27.9201 14.6833C27.9201 14.7827 27.9022 14.8811 27.8676 14.9729C27.833 15.0646 27.7823 15.148 27.7183 15.218C27.6544 15.2881 27.5785 15.3436 27.4951 15.3812C27.4117 15.4188 27.3223 15.4379 27.2322 15.4372Z" fill="#524BD6"/>
<path d="M27.2322 20.7764H7.86711C7.77697 20.777 7.68762 20.758 7.60419 20.7203C7.52076 20.6827 7.4449 20.6273 7.38097 20.5572C7.31704 20.4871 7.26631 20.4038 7.23168 20.312C7.19706 20.2202 7.17924 20.1218 7.17924 20.0224C7.17924 19.923 7.19706 19.8246 7.23168 19.7328C7.26631 19.641 7.31704 19.5577 7.38097 19.4876C7.4449 19.4175 7.52076 19.3621 7.60419 19.3245C7.68762 19.2869 7.77697 19.2678 7.86711 19.2684H27.2322C27.3223 19.2678 27.4117 19.2869 27.4951 19.3245C27.5785 19.3621 27.6544 19.4175 27.7183 19.4876C27.7823 19.5577 27.833 19.641 27.8676 19.7328C27.9022 19.8246 27.9201 19.923 27.9201 20.0224C27.9201 20.1218 27.9022 20.2202 27.8676 20.312C27.833 20.4038 27.7823 20.4871 27.7183 20.5572C27.6544 20.6273 27.5785 20.6827 27.4951 20.7203C27.4117 20.758 27.3223 20.777 27.2322 20.7764Z" fill="#524BD6"/>
<path d="M27.2322 26.1159H7.86711C7.77697 26.1165 7.68762 26.0975 7.60419 26.0599C7.52076 26.0223 7.4449 25.9668 7.38097 25.8967C7.31704 25.8267 7.26631 25.7433 7.23168 25.6516C7.19706 25.5598 7.17924 25.4613 7.17924 25.3619C7.17924 25.2625 7.19706 25.1641 7.23168 25.0723C7.26631 24.9805 7.31704 24.8972 7.38097 24.8271C7.4449 24.7571 7.52076 24.7016 7.60419 24.664C7.68762 24.6264 7.77697 24.6073 7.86711 24.6079H27.2322C27.3223 24.6073 27.4117 24.6264 27.4951 24.664C27.5785 24.7016 27.6544 24.7571 27.7183 24.8271C27.7823 24.8972 27.833 24.9805 27.8676 25.0723C27.9022 25.1641 27.9201 25.2625 27.9201 25.3619C27.9201 25.4613 27.9022 25.5598 27.8676 25.6516C27.833 25.7433 27.7823 25.8267 27.7183 25.8967C27.6544 25.9668 27.5785 26.0223 27.4951 26.0599C27.4117 26.0975 27.3223 26.1165 27.2322 26.1159Z" fill="#524BD6"/>
<path d="M27.2322 31.4555H7.86711C7.68578 31.4555 7.51189 31.376 7.38367 31.2346C7.25546 31.0932 7.18344 30.9014 7.18344 30.7015C7.18344 30.5015 7.25546 30.3097 7.38367 30.1683C7.51189 30.0269 7.68578 29.9475 7.86711 29.9475H27.2322C27.4135 29.9475 27.5874 30.0269 27.7156 30.1683C27.8438 30.3097 27.9159 30.5015 27.9159 30.7015C27.9159 30.9014 27.8438 31.0932 27.7156 31.2346C27.5874 31.376 27.4135 31.4555 27.2322 31.4555Z" fill="#524BD6"/>
<path d="M130.892 1.50801C131.254 1.50847 131.602 1.66749 131.858 1.9502C132.114 2.2329 132.258 2.61619 132.259 3.016V35.6943C132.258 36.0941 132.114 36.4774 131.858 36.7601C131.602 37.0428 131.254 37.2018 130.892 37.2023H101.867C101.504 37.2018 101.157 37.0428 100.9 36.7601C100.644 36.4774 100.5 36.0941 100.5 35.6943V3.01603C100.5 2.61622 100.644 2.23292 100.9 1.95022C101.157 1.66752 101.504 1.50849 101.867 1.50803H130.892V1.50801ZM130.892 2.166e-05H101.867C101.142 2.166e-05 100.446 0.317779 99.9331 0.883394C99.4203 1.44901 99.1321 2.21615 99.1321 3.01605V35.6943C99.1321 36.4942 99.4203 37.2613 99.9331 37.8269C100.446 38.3926 101.142 38.7103 101.867 38.7103H130.892C131.617 38.7103 132.312 38.3926 132.825 37.8269C133.338 37.2613 133.626 36.4942 133.626 35.6943V3.01603C133.626 2.21613 133.338 1.44899 132.825 0.883372C132.312 0.317758 131.617 0 130.892 0V2.166e-05Z" fill="#E6E6E6"/>
<path d="M126.364 10.0977H106.999C106.909 10.0983 106.82 10.0793 106.736 10.0417C106.653 10.004 106.577 9.94859 106.513 9.87852C106.449 9.80844 106.398 9.72511 106.364 9.63333C106.329 9.54155 106.311 9.44312 106.311 9.34372C106.311 9.24431 106.329 9.14588 106.364 9.0541C106.398 8.96232 106.449 8.87899 106.513 8.80892C106.577 8.73884 106.653 8.6834 106.736 8.64578C106.82 8.60817 106.909 8.58911 106.999 8.58972H126.364C126.545 8.59094 126.718 8.67092 126.845 8.81219C126.972 8.95346 127.044 9.14454 127.044 9.34372C127.044 9.54289 126.972 9.73397 126.845 9.87524C126.718 10.0165 126.545 10.0965 126.364 10.0977H126.364Z" fill="#524BD6"/>
<path d="M126.364 15.4372H106.999C106.909 15.4379 106.82 15.4188 106.736 15.3812C106.653 15.3436 106.577 15.2881 106.513 15.218C106.449 15.148 106.398 15.0646 106.364 14.9729C106.329 14.8811 106.311 14.7827 106.311 14.6833C106.311 14.5838 106.329 14.4854 106.364 14.3936C106.398 14.3019 106.449 14.2185 106.513 14.1485C106.577 14.0784 106.653 14.0229 106.736 13.9853C106.82 13.9477 106.909 13.9286 106.999 13.9293H126.364C126.545 13.9305 126.718 14.0105 126.845 14.1517C126.972 14.293 127.044 14.4841 127.044 14.6833C127.044 14.8824 126.972 15.0735 126.845 15.2148C126.718 15.356 126.545 15.436 126.364 15.4372H126.364Z" fill="#524BD6"/>
<path d="M126.364 20.7764H106.999C106.909 20.777 106.82 20.758 106.736 20.7203C106.653 20.6827 106.577 20.6273 106.513 20.5572C106.449 20.4871 106.398 20.4038 106.364 20.312C106.329 20.2202 106.311 20.1218 106.311 20.0224C106.311 19.923 106.329 19.8246 106.364 19.7328C106.398 19.641 106.449 19.5577 106.513 19.4876C106.577 19.4175 106.653 19.3621 106.736 19.3245C106.82 19.2869 106.909 19.2678 106.999 19.2684H126.364C126.545 19.2696 126.718 19.3496 126.845 19.4909C126.972 19.6322 127.044 19.8232 127.044 20.0224C127.044 20.2216 126.972 20.4127 126.845 20.5539C126.718 20.6952 126.545 20.7752 126.364 20.7764H126.364Z" fill="#524BD6"/>
<path d="M126.364 26.1159H106.999C106.909 26.1165 106.82 26.0975 106.736 26.0599C106.653 26.0223 106.577 25.9668 106.513 25.8967C106.449 25.8267 106.398 25.7433 106.364 25.6516C106.329 25.5598 106.311 25.4613 106.311 25.3619C106.311 25.2625 106.329 25.1641 106.364 25.0723C106.398 24.9805 106.449 24.8972 106.513 24.8271C106.577 24.7571 106.653 24.7016 106.736 24.664C106.82 24.6264 106.909 24.6073 106.999 24.6079H126.364C126.545 24.6092 126.718 24.6891 126.845 24.8304C126.972 24.9717 127.044 25.1628 127.044 25.3619C127.044 25.5611 126.972 25.7522 126.845 25.8935C126.718 26.0347 126.545 26.1147 126.364 26.1159H126.364Z" fill="#524BD6"/>
<path d="M126.364 31.4555H106.999C106.818 31.4555 106.644 31.376 106.516 31.2346C106.388 31.0932 106.316 30.9014 106.316 30.7015C106.316 30.5015 106.388 30.3097 106.516 30.1683C106.644 30.0269 106.818 29.9475 106.999 29.9475H126.364C126.546 29.9475 126.72 30.0269 126.848 30.1683C126.976 30.3097 127.048 30.5015 127.048 30.7015C127.048 30.9014 126.976 31.0932 126.848 31.2346C126.72 31.376 126.546 31.4555 126.364 31.4555H126.364Z" fill="#524BD6"/>
<path d="M229.542 64.3408C229.905 64.3412 230.252 64.5003 230.509 64.783C230.765 65.0657 230.909 65.449 230.91 65.8488V98.5271C230.909 98.9269 230.765 99.3102 230.509 99.5929C230.252 99.8756 229.905 100.035 229.542 100.035H200.517C200.155 100.035 199.807 99.8756 199.551 99.5929C199.295 99.3102 199.151 98.9269 199.15 98.5271V65.8488C199.151 65.449 199.295 65.0657 199.551 64.783C199.807 64.5003 200.155 64.3413 200.517 64.3408H229.542V64.3408ZM229.542 62.8328H200.517C199.792 62.8328 199.097 63.1506 198.584 63.7162C198.071 64.2818 197.783 65.0489 197.783 65.8488V98.5271C197.783 99.327 198.071 100.094 198.584 100.66C199.097 101.225 199.792 101.543 200.517 101.543H229.542C230.267 101.543 230.963 101.225 231.476 100.66C231.989 100.094 232.277 99.327 232.277 98.5271V65.8488C232.277 65.0489 231.989 64.2818 231.476 63.7162C230.963 63.1505 230.267 62.8328 229.542 62.8328V62.8328Z" fill="#524BD6"/>
<path d="M225.015 72.9305H205.65C205.56 72.9311 205.47 72.9121 205.387 72.8744C205.304 72.8368 205.228 72.7814 205.164 72.7113C205.1 72.6412 205.049 72.5579 205.014 72.4661C204.98 72.3743 204.962 72.2759 204.962 72.1765C204.962 72.0771 204.98 71.9787 205.014 71.8869C205.049 71.7951 205.1 71.7118 205.164 71.6417C205.228 71.5716 205.304 71.5162 205.387 71.4786C205.47 71.4409 205.56 71.4219 205.65 71.4225H225.015C225.196 71.4237 225.368 71.5037 225.496 71.645C225.623 71.7862 225.694 71.9773 225.694 72.1765C225.694 72.3757 225.623 72.5667 225.496 72.708C225.368 72.8493 225.196 72.9293 225.015 72.9305Z" fill="#524BD6"/>
<path d="M225.015 78.27H205.65C205.469 78.27 205.295 78.1906 205.166 78.0492C205.038 77.9078 204.966 77.716 204.966 77.516C204.966 77.316 205.038 77.1243 205.166 76.9829C205.295 76.8414 205.469 76.762 205.65 76.762H225.015C225.196 76.762 225.37 76.8414 225.498 76.9829C225.627 77.1243 225.699 77.316 225.699 77.516C225.699 77.716 225.627 77.9078 225.498 78.0492C225.37 78.1906 225.196 78.27 225.015 78.27Z" fill="#524BD6"/>
<path d="M225.015 83.6092H205.65C205.56 83.6097 205.471 83.5905 205.387 83.5529C205.304 83.5152 205.228 83.4597 205.164 83.3897C205.1 83.3196 205.05 83.2363 205.015 83.1446C204.981 83.0529 204.963 82.9545 204.963 82.8552C204.963 82.7558 204.981 82.6575 205.015 82.5658C205.05 82.474 205.1 82.3907 205.164 82.3207C205.228 82.2506 205.304 82.1952 205.387 82.1575C205.471 82.1198 205.56 82.1007 205.65 82.1012H225.015C225.196 82.1024 225.368 82.1824 225.496 82.3237C225.623 82.4649 225.694 82.656 225.694 82.8552C225.694 83.0544 225.623 83.2454 225.496 83.3867C225.368 83.528 225.196 83.608 225.015 83.6092Z" fill="#524BD6"/>
<path d="M225.015 88.9487H205.65C205.56 88.9493 205.47 88.9303 205.387 88.8927C205.304 88.855 205.228 88.7996 205.164 88.7295C205.1 88.6594 205.049 88.5761 205.014 88.4843C204.98 88.3926 204.962 88.2941 204.962 88.1947C204.962 88.0953 204.98 87.9969 205.014 87.9051C205.049 87.8133 205.1 87.73 205.164 87.6599C205.228 87.5899 205.304 87.5344 205.387 87.4968C205.47 87.4592 205.56 87.4401 205.65 87.4407H225.015C225.196 87.442 225.368 87.5219 225.496 87.6632C225.623 87.8045 225.694 87.9955 225.694 88.1947C225.694 88.3939 225.623 88.585 225.496 88.7262C225.368 88.8675 225.196 88.9475 225.015 88.9487Z" fill="#524BD6"/>
<path d="M225.015 94.2882H205.65C205.56 94.2888 205.47 94.2698 205.387 94.2322C205.304 94.1946 205.228 94.1391 205.164 94.0691C205.1 93.999 205.049 93.9156 205.014 93.8239C204.98 93.7321 204.962 93.6337 204.962 93.5343C204.962 93.4348 204.98 93.3364 205.014 93.2446C205.049 93.1529 205.1 93.0695 205.164 92.9995C205.228 92.9294 205.304 92.8739 205.387 92.8363C205.47 92.7987 205.56 92.7796 205.65 92.7803H225.015C225.196 92.7815 225.368 92.8615 225.496 93.0027C225.623 93.144 225.694 93.3351 225.694 93.5343C225.694 93.7334 225.623 93.9245 225.496 94.0658C225.368 94.207 225.196 94.287 225.015 94.2882Z" fill="#524BD6"/>
<path d="M81.7053 38.7103H51.9206C51.1151 38.7093 50.3429 38.3559 49.7734 37.7278C49.2038 37.0996 48.8834 36.248 48.8825 35.3596V11.8543C48.8833 10.9659 49.2037 10.1142 49.7733 9.48598C50.3428 8.85775 51.1151 8.50434 51.9206 8.50328H81.7053C82.5109 8.50426 83.2832 8.85763 83.8528 9.48586C84.4225 10.1141 84.7429 10.9659 84.7438 11.8543V35.3596C84.7428 36.248 84.4223 37.0997 83.8527 37.7279C83.2831 38.356 82.5108 38.7094 81.7053 38.7103ZM51.9206 10.0113C51.4776 10.0119 51.0529 10.2063 50.7397 10.5518C50.4264 10.8973 50.2503 11.3657 50.2498 11.8543V35.3596C50.2503 35.8482 50.4265 36.3166 50.7397 36.662C51.0529 37.0075 51.4776 37.2018 51.9206 37.2023H81.7053C82.1483 37.2018 82.573 37.0075 82.8863 36.6621C83.1996 36.3166 83.3759 35.8482 83.3764 35.3596V11.8543C83.3759 11.3657 83.1996 10.8973 82.8864 10.5518C82.5731 10.2063 82.1483 10.0119 81.7053 10.0113H51.9206Z" fill="#E6E6E6"/>
<path d="M76.4957 19.0215H57.1306C56.95 19.0202 56.7772 18.9403 56.6499 18.799C56.5226 18.6577 56.4511 18.4666 56.4511 18.2675C56.4511 18.0683 56.5226 17.8772 56.6499 17.7359C56.7772 17.5947 56.95 17.5147 57.1306 17.5135H76.4957C76.5858 17.5129 76.6751 17.5319 76.7586 17.5695C76.842 17.6071 76.9179 17.6626 76.9818 17.7327C77.0457 17.8027 77.0965 17.8861 77.1311 17.9778C77.1657 18.0696 77.1835 18.1681 77.1835 18.2675C77.1835 18.3669 77.1657 18.4653 77.1311 18.5571C77.0965 18.6489 77.0457 18.7322 76.9818 18.8023C76.9179 18.8723 76.842 18.9278 76.7586 18.9654C76.6751 19.003 76.5858 19.0221 76.4957 19.0215Z" fill="#524BD6"/>
<path d="M76.4957 24.361H57.1306C56.95 24.3598 56.7772 24.2798 56.6499 24.1385C56.5226 23.9973 56.4511 23.8062 56.4511 23.607C56.4511 23.4078 56.5226 23.2167 56.6499 23.0755C56.7772 22.9342 56.95 22.8542 57.1306 22.853H76.4957C76.5858 22.8524 76.6751 22.8714 76.7586 22.9091C76.842 22.9467 76.9179 23.0021 76.9818 23.0722C77.0457 23.1423 77.0965 23.2256 77.1311 23.3174C77.1657 23.4092 77.1835 23.5076 77.1835 23.607C77.1835 23.7064 77.1657 23.8048 77.1311 23.8966C77.0965 23.9884 77.0457 24.0717 76.9818 24.1418C76.9179 24.2119 76.842 24.2673 76.7586 24.3049C76.6751 24.3426 76.5858 24.3616 76.4957 24.361Z" fill="#524BD6"/>
<path d="M76.4957 29.7002H57.1306C56.95 29.6989 56.7772 29.619 56.6499 29.4777C56.5226 29.3364 56.4511 29.1453 56.4511 28.9462C56.4511 28.747 56.5226 28.5559 56.6499 28.4146C56.7772 28.2734 56.95 28.1934 57.1306 28.1922H76.4957C76.5858 28.1916 76.6751 28.2106 76.7586 28.2482C76.842 28.2858 76.9179 28.3413 76.9818 28.4114C77.0457 28.4814 77.0965 28.5648 77.1311 28.6565C77.1657 28.7483 77.1835 28.8468 77.1835 28.9462C77.1835 29.0456 77.1657 29.144 77.1311 29.2358C77.0965 29.3276 77.0457 29.4109 76.9818 29.481C76.9179 29.551 76.842 29.6065 76.7586 29.6441C76.6751 29.6817 76.5858 29.7008 76.4957 29.7002Z" fill="#524BD6"/>
<path d="M180.536 51.7353L151.93 42.5861C151.156 42.3376 150.504 41.761 150.116 40.9828C149.727 40.2045 149.635 39.2882 149.858 38.4347L155.794 15.8595C156.019 15.0066 156.542 14.2869 157.248 13.8585C157.953 13.4301 158.784 13.3279 159.558 13.5743L188.164 22.7236C188.938 22.972 189.59 23.5486 189.979 24.327C190.367 25.1053 190.46 26.0218 190.236 26.8754L184.3 49.4506C184.075 50.3035 183.552 51.0231 182.846 51.4514C182.141 51.8797 181.31 51.9818 180.536 51.7353ZM159.178 15.0227C158.752 14.8872 158.295 14.9434 157.907 15.179C157.519 15.4147 157.231 15.8105 157.107 16.2796L151.171 38.8547C151.048 39.3241 151.099 39.8281 151.313 40.2561C151.527 40.6841 151.885 41.0011 152.311 41.1377L180.917 50.287C181.342 50.4226 181.799 50.3664 182.187 50.1309C182.576 49.8953 182.863 49.4996 182.987 49.0305L188.923 26.4554C189.046 25.9859 188.995 25.4819 188.781 25.0538C188.568 24.6258 188.209 24.3086 187.784 24.1719L159.178 15.0227Z" fill="#E6E6E6"/>
<path d="M180.505 31.2253L161.906 25.2767C161.732 25.2207 161.585 25.0909 161.498 24.9159C161.411 24.7408 161.391 24.5348 161.441 24.3429C161.491 24.1511 161.609 23.9892 161.767 23.8927C161.926 23.7963 162.113 23.7731 162.287 23.8284L180.886 29.7769C181.06 29.8326 181.207 29.9623 181.294 30.1375C181.381 30.3127 181.402 30.5191 181.352 30.7111C181.301 30.9032 181.184 31.0652 181.025 31.1617C180.866 31.2581 180.679 31.281 180.505 31.2253H180.505Z" fill="#524BD6"/>
<path d="M179.156 36.3535L160.557 30.405C160.471 30.3774 160.391 30.3313 160.321 30.2695C160.251 30.2076 160.192 30.1311 160.149 30.0443C160.106 29.9576 160.078 29.8623 160.068 29.7639C160.058 29.6655 160.066 29.5659 160.091 29.4708C160.116 29.3757 160.158 29.2869 160.214 29.2096C160.27 29.1323 160.34 29.068 160.418 29.0202C160.497 28.9725 160.583 28.9423 160.672 28.9314C160.762 28.9205 160.852 28.929 160.938 28.9566L179.537 34.9052C179.711 34.9612 179.857 35.091 179.945 35.266C180.032 35.4411 180.052 35.6471 180.002 35.8389C179.952 36.0308 179.834 36.1927 179.676 36.2891C179.517 36.3856 179.33 36.4088 179.156 36.3535Z" fill="#524BD6"/>
<path d="M177.808 41.4814L159.209 35.5328C159.035 35.4768 158.889 35.3471 158.801 35.172C158.714 34.9969 158.694 34.7909 158.744 34.5991C158.795 34.4073 158.912 34.2453 159.071 34.1489C159.229 34.0524 159.416 34.0292 159.59 34.0845L178.189 40.0331C178.363 40.0888 178.51 40.2185 178.597 40.3937C178.685 40.5689 178.705 40.7752 178.655 40.9672C178.604 41.1593 178.487 41.3214 178.328 41.4178C178.169 41.5142 177.982 41.5371 177.808 41.4814Z" fill="#524BD6"/>
<path d="M367 287.58H66.9741V289H367V287.58Z" fill="#E6E6E6"/>
<path d="M241.175 285.361H192.386L194.04 261.65H239.521L241.175 285.361Z" fill="#D0C8C8"/>
<path d="M244.482 282.626H189.905V288.098H244.482V282.626Z" fill="#D0C8C8"/>
<path d="M310.223 108.889H123.751C122.435 108.889 121.173 109.466 120.243 110.492C119.312 111.518 118.79 112.91 118.79 114.361V239.761H315.184V114.361C315.184 113.643 315.056 112.931 314.807 112.267C314.557 111.603 314.192 111 313.731 110.492C313.271 109.984 312.724 109.581 312.122 109.306C311.52 109.031 310.874 108.889 310.223 108.889H310.223Z" fill="#3F3D56"/>
<path d="M118.79 239.761V260.281C118.79 261 118.918 261.712 119.167 262.376C119.417 263.039 119.782 263.643 120.243 264.151C120.704 264.659 121.251 265.062 121.853 265.337C122.454 265.612 123.1 265.753 123.751 265.753H310.223C311.539 265.753 312.801 265.177 313.731 264.151C314.662 263.125 315.184 261.733 315.184 260.281V239.761H118.79Z" fill="#D0C8C8"/>
<path d="M305.675 120.289H128.713V229.729H305.675V120.289Z" fill="#E6E6E6"/>
<path d="M217.194 258.001C219.934 258.001 222.155 255.552 222.155 252.529C222.155 249.507 219.934 247.057 217.194 247.057C214.454 247.057 212.232 249.507 212.232 252.529C212.232 255.552 214.454 258.001 217.194 258.001Z" fill="#3F3D56"/>
<path d="M134.231 124.912C134.751 124.912 135.172 124.447 135.172 123.873C135.172 123.3 134.751 122.835 134.231 122.835C133.71 122.835 133.289 123.3 133.289 123.873C133.289 124.447 133.71 124.912 134.231 124.912Z" fill="white"/>
<path d="M137.804 124.912C138.325 124.912 138.746 124.447 138.746 123.873C138.746 123.3 138.325 122.835 137.804 122.835C137.284 122.835 136.863 123.3 136.863 123.873C136.863 124.447 137.284 124.912 137.804 124.912Z" fill="white"/>
<path d="M141.378 124.912C141.898 124.912 142.32 124.447 142.32 123.873C142.32 123.3 141.898 122.835 141.378 122.835C140.858 122.835 140.437 123.3 140.437 123.873C140.437 124.447 140.858 124.912 141.378 124.912Z" fill="white"/>
<path d="M300.575 127.402H133.289V219.314H300.575V127.402Z" fill="white"/>
<path d="M144.409 141.382C144.252 141.383 144.102 141.451 143.991 141.574C143.88 141.696 143.818 141.862 143.818 142.035V175.003C143.818 175.176 143.88 175.342 143.991 175.464C144.102 175.586 144.252 175.655 144.409 175.655H178.931C179.087 175.655 179.238 175.586 179.349 175.464C179.459 175.342 179.522 175.176 179.522 175.003V142.035C179.522 141.862 179.459 141.696 179.349 141.574C179.238 141.451 179.087 141.383 178.931 141.382H144.409Z" fill="#E6E6E6"/>
<path d="M199.838 141.488C199.681 141.488 199.531 141.557 199.42 141.68C199.309 141.802 199.246 141.968 199.246 142.141V175.003C199.246 175.176 199.309 175.342 199.42 175.464C199.531 175.586 199.681 175.655 199.838 175.655H234.249C234.406 175.655 234.556 175.586 234.667 175.464C234.778 175.342 234.84 175.176 234.841 175.003V142.141C234.84 141.968 234.778 141.802 234.667 141.68C234.556 141.557 234.406 141.489 234.249 141.488H199.838Z" fill="#E6E6E6"/>
<path d="M254.685 141.144C254.529 141.144 254.378 141.213 254.267 141.335C254.157 141.457 254.094 141.623 254.094 141.796V175.003C254.094 175.176 254.157 175.342 254.267 175.464C254.378 175.586 254.529 175.655 254.685 175.655H289.455C289.612 175.655 289.762 175.586 289.873 175.464C289.983 175.342 290.046 175.176 290.046 175.003V141.796C290.046 141.623 289.983 141.457 289.873 141.335C289.762 141.213 289.612 141.144 289.455 141.144H254.685Z" fill="#E6E6E6"/>
<path d="M145.04 191.974C144.716 191.975 144.406 192.118 144.177 192.37C143.948 192.623 143.82 192.966 143.82 193.323C143.82 193.68 143.948 194.023 144.177 194.276C144.406 194.528 144.716 194.671 145.04 194.671H177.497C177.821 194.671 178.132 194.528 178.36 194.276C178.589 194.023 178.718 193.68 178.718 193.323C178.718 192.966 178.589 192.623 178.36 192.37C178.132 192.118 177.821 191.975 177.497 191.974H145.04Z" fill="#E6E6E6"/>
<path d="M145.04 198.389C144.716 198.389 144.406 198.532 144.177 198.784C143.948 199.037 143.82 199.38 143.82 199.737C143.82 200.094 143.948 200.437 144.177 200.69C144.406 200.943 144.716 201.085 145.04 201.086H159.654C159.978 201.085 160.288 200.943 160.517 200.69C160.746 200.437 160.874 200.094 160.874 199.737C160.874 199.38 160.746 199.037 160.517 198.784C160.288 198.532 159.978 198.389 159.654 198.389H145.04Z" fill="#524BD6"/>
<path d="M201.065 191.974C200.741 191.975 200.43 192.118 200.201 192.37C199.973 192.623 199.844 192.966 199.844 193.323C199.844 193.68 199.973 194.023 200.201 194.276C200.43 194.528 200.741 194.671 201.065 194.671H233.522C233.846 194.671 234.156 194.528 234.385 194.276C234.614 194.023 234.742 193.68 234.742 193.323C234.742 192.966 234.614 192.623 234.385 192.37C234.156 192.118 233.846 191.975 233.522 191.974H201.065Z" fill="#E6E6E6"/>
<path d="M201.065 198.389C200.741 198.389 200.43 198.532 200.201 198.784C199.973 199.037 199.844 199.38 199.844 199.737C199.844 200.094 199.973 200.437 200.201 200.69C200.43 200.943 200.741 201.085 201.065 201.086H215.678C216.002 201.085 216.313 200.943 216.541 200.69C216.77 200.437 216.899 200.094 216.899 199.737C216.899 199.38 216.77 199.037 216.541 198.784C216.313 198.532 216.002 198.389 215.678 198.389H201.065Z" fill="#524BD6"/>
<path d="M255.689 191.974C255.365 191.975 255.054 192.118 254.826 192.37C254.597 192.623 254.468 192.966 254.468 193.323C254.468 193.68 254.597 194.023 254.826 194.276C255.054 194.528 255.365 194.671 255.689 194.671H288.146C288.47 194.671 288.78 194.528 289.009 194.276C289.238 194.023 289.366 193.68 289.366 193.323C289.366 192.966 289.238 192.623 289.009 192.37C288.78 192.118 288.47 191.975 288.146 191.974H255.689Z" fill="#E6E6E6"/>
<path d="M145.04 185.35C144.716 185.351 144.406 185.493 144.177 185.746C143.948 185.999 143.82 186.341 143.82 186.699C143.82 187.056 143.948 187.398 144.177 187.651C144.406 187.904 144.716 188.046 145.04 188.047H177.497C177.821 188.046 178.132 187.904 178.36 187.651C178.589 187.398 178.718 187.056 178.718 186.699C178.718 186.341 178.589 185.999 178.36 185.746C178.132 185.493 177.821 185.351 177.497 185.35H145.04Z" fill="#E6E6E6"/>
<path d="M201.065 185.35C200.741 185.351 200.43 185.493 200.201 185.746C199.973 185.999 199.844 186.341 199.844 186.699C199.844 187.056 199.973 187.398 200.201 187.651C200.43 187.904 200.741 188.046 201.065 188.047H233.522C233.846 188.046 234.156 187.904 234.385 187.651C234.614 187.398 234.742 187.056 234.742 186.699C234.742 186.341 234.614 185.999 234.385 185.746C234.156 185.493 233.846 185.351 233.522 185.35H201.065Z" fill="#E6E6E6"/>
<path d="M255.689 185.35C255.365 185.351 255.054 185.493 254.826 185.746C254.597 185.999 254.468 186.341 254.468 186.699C254.468 187.056 254.597 187.398 254.826 187.651C255.054 187.904 255.365 188.046 255.689 188.047H288.146C288.47 188.046 288.78 187.904 289.009 187.651C289.238 187.398 289.366 187.056 289.366 186.699C289.366 186.341 289.238 185.999 289.009 185.746C288.78 185.493 288.47 185.351 288.146 185.35H255.689Z" fill="#E6E6E6"/>
<path d="M255.689 198.389C255.365 198.389 255.054 198.532 254.826 198.784C254.597 199.037 254.468 199.38 254.468 199.737C254.468 200.094 254.597 200.437 254.826 200.69C255.054 200.943 255.365 201.085 255.689 201.086H270.302C270.626 201.085 270.937 200.943 271.165 200.69C271.394 200.437 271.523 200.094 271.523 199.737C271.523 199.38 271.394 199.037 271.165 198.784C270.937 198.532 270.626 198.389 270.302 198.389H255.689Z" fill="#524BD6"/>
</g>
<defs>
<clipPath id="clip0_3_3">
<rect width="367" height="289" fill="white"/>
</clipPath>
</defs>
</svg>
